<svg xmlns="http://www.w3.org/2000/svg" width="980" height="620" viewBox="0 0 980 620">
<rect width="980" height="620" fill="white"/>
<text x="20" y="26" font-family="Helvetica,Arial" font-size="14" font-weight="700">A</text>
<text x="40" y="26" font-family="Helvetica,Arial" font-size="12">Agrupamiento de los 23 genomas andinos portadores (UPGMA sobre distancias alélicas cgMLST)</text>
<path d="M170.0,390.0 L170.0,390.0 L195.5,390.0 L195.5,390.0" fill="none" stroke="#444" stroke-width="1.1"/>
<path d="M220.9,390.0 L220.9,390.0 L246.4,390.0 L246.4,390.0" fill="none" stroke="#444" stroke-width="1.1"/>
<path d="M271.8,390.0 L271.8,390.0 L297.3,390.0 L297.3,390.0" fill="none" stroke="#444" stroke-width="1.1"/>
<path d="M322.7,390.0 L322.7,390.0 L182.7,390.0 L182.7,390.0" fill="none" stroke="#444" stroke-width="1.1"/>
<path d="M500.9,390.0 L500.9,390.0 L526.4,390.0 L526.4,390.0" fill="none" stroke="#444" stroke-width="1.1"/>
<path d="M602.7,390.0 L602.7,390.0 L628.2,390.0 L628.2,390.0" fill="none" stroke="#444" stroke-width="1.1"/>
<path d="M233.6,390.0 L233.6,390.0 L284.5,390.0 L284.5,390.0" fill="none" stroke="#444" stroke-width="1.1"/>
<path d="M252.7,390.0 L252.7,390.0 L259.1,390.0 L259.1,390.0" fill="none" stroke="#444" stroke-width="1.1"/>
<path d="M653.6,390.0 L653.6,381.3 L679.1,381.3 L679.1,390.0" fill="none" stroke="#444" stroke-width="1.1"/>
<path d="M704.5,390.0 L704.5,377.0 L666.4,377.0 L666.4,381.3" fill="none" stroke="#444" stroke-width="1.1"/>
<path d="M551.8,390.0 L551.8,372.6 L513.6,372.6 L513.6,390.0" fill="none" stroke="#444" stroke-width="1.1"/>
<path d="M730.0,390.0 L730.0,346.6 L685.5,346.6 L685.5,377.0" fill="none" stroke="#444" stroke-width="1.1"/>
<path d="M373.6,390.0 L373.6,337.9 L450.0,337.9 L450.0,390.0" fill="none" stroke="#444" stroke-width="1.1"/>
<path d="M399.1,390.0 L399.1,320.5 L255.9,320.5 L255.9,390.0" fill="none" stroke="#444" stroke-width="1.1"/>
<path d="M475.5,390.0 L475.5,317.3 L327.5,317.3 L327.5,320.5" fill="none" stroke="#444" stroke-width="1.1"/>
<path d="M577.3,390.0 L577.3,314.7 L532.7,314.7 L532.7,372.6" fill="none" stroke="#444" stroke-width="1.1"/>
<path d="M615.5,390.0 L615.5,311.8 L555.0,311.8 L555.0,314.7" fill="none" stroke="#444" stroke-width="1.1"/>
<path d="M411.8,337.9 L411.8,304.1 L401.5,304.1 L401.5,317.3" fill="none" stroke="#444" stroke-width="1.1"/>
<path d="M348.2,390.0 L348.2,290.5 L406.6,290.5 L406.6,304.1" fill="none" stroke="#444" stroke-width="1.1"/>
<path d="M424.5,390.0 L424.5,257.6 L377.4,257.6 L377.4,290.5" fill="none" stroke="#444" stroke-width="1.1"/>
<path d="M707.7,346.6 L707.7,235.9 L585.2,235.9 L585.2,311.8" fill="none" stroke="#444" stroke-width="1.1"/>
<path d="M401.0,257.6 L401.0,60.0 L646.5,60.0 L646.5,235.9" fill="none" stroke="#444" stroke-width="1.1"/>
<circle cx="170.0" cy="390" r="4" fill="#2166ac"/>
<text x="170.0" y="406" text-anchor="end" font-family="Helvetica,Arial" font-size="7.5" transform="rotate(-70 170.0 406)">GCA_026311855.1 Ec 2020</text>
<circle cx="195.5" cy="390" r="4" fill="#2166ac"/>
<text x="195.5" y="406" text-anchor="end" font-family="Helvetica,Arial" font-size="7.5" transform="rotate(-70 195.5 406)">GCA_026311875.1 Ec 2020</text>
<circle cx="220.9" cy="390" r="4" fill="#2166ac"/>
<text x="220.9" y="406" text-anchor="end" font-family="Helvetica,Arial" font-size="7.5" transform="rotate(-70 220.9 406)">GCA_026340685.1 Ec 2020</text>
<circle cx="246.4" cy="390" r="4" fill="#2166ac"/>
<text x="246.4" y="406" text-anchor="end" font-family="Helvetica,Arial" font-size="7.5" transform="rotate(-70 246.4 406)">GCA_026340785.1 Ec 2020</text>
<circle cx="271.8" cy="390" r="4" fill="#2166ac"/>
<text x="271.8" y="406" text-anchor="end" font-family="Helvetica,Arial" font-size="7.5" transform="rotate(-70 271.8 406)">GCA_026340935.1 Ec 2020</text>
<circle cx="297.3" cy="390" r="4" fill="#2166ac"/>
<text x="297.3" y="406" text-anchor="end" font-family="Helvetica,Arial" font-size="7.5" transform="rotate(-70 297.3 406)">GCA_029955785.1 Ec 2022</text>
<circle cx="322.7" cy="390" r="4" fill="#2166ac"/>
<text x="322.7" y="406" text-anchor="end" font-family="Helvetica,Arial" font-size="7.5" transform="rotate(-70 322.7 406)">GCA_030016875.1 Ec 2021</text>
<circle cx="348.2" cy="390" r="4" fill="#2166ac"/>
<text x="348.2" y="406" text-anchor="end" font-family="Helvetica,Arial" font-size="7.5" transform="rotate(-70 348.2 406)">GCA_037545805.1 Pe 2022</text>
<circle cx="373.6" cy="390" r="4" fill="#2166ac"/>
<text x="373.6" y="406" text-anchor="end" font-family="Helvetica,Arial" font-size="7.5" transform="rotate(-70 373.6 406)">GCA_053320315.1 Pe 2024</text>
<circle cx="399.1" cy="390" r="4" fill="#2166ac"/>
<text x="399.1" y="406" text-anchor="end" font-family="Helvetica,Arial" font-size="7.5" transform="rotate(-70 399.1 406)">GCA_053320335.1 Pe 2023</text>
<circle cx="424.5" cy="390" r="4" fill="#2166ac"/>
<text x="424.5" y="406" text-anchor="end" font-family="Helvetica,Arial" font-size="7.5" transform="rotate(-70 424.5 406)">GCA_053320415.1 Pe 2023</text>
<circle cx="450.0" cy="390" r="4" fill="#2166ac"/>
<text x="450.0" y="406" text-anchor="end" font-family="Helvetica,Arial" font-size="7.5" transform="rotate(-70 450.0 406)">GCA_053373735.1 Pe 2024</text>
<circle cx="475.5" cy="390" r="4" fill="#2166ac"/>
<text x="475.5" y="406" text-anchor="end" font-family="Helvetica,Arial" font-size="7.5" transform="rotate(-70 475.5 406)">GCA_053373755.1 Pe 2024</text>
<circle cx="500.9" cy="390" r="4" fill="#b2182b"/>
<text x="500.9" y="406" text-anchor="end" font-family="Helvetica,Arial" font-size="7.5" transform="rotate(-70 500.9 406)">GCA_037545705.1 Pe 2022</text>
<circle cx="526.4" cy="390" r="4" fill="#b2182b"/>
<text x="526.4" y="406" text-anchor="end" font-family="Helvetica,Arial" font-size="7.5" transform="rotate(-70 526.4 406)">GCA_037545745.1 Pe 2022</text>
<circle cx="551.8" cy="390" r="4" fill="#b2182b"/>
<text x="551.8" y="406" text-anchor="end" font-family="Helvetica,Arial" font-size="7.5" transform="rotate(-70 551.8 406)">GCA_037545755.1 Pe 2022</text>
<circle cx="577.3" cy="390" r="4" fill="#b2182b"/>
<text x="577.3" y="406" text-anchor="end" font-family="Helvetica,Arial" font-size="7.5" transform="rotate(-70 577.3 406)">GCA_051942065.1 Pe 2021</text>
<circle cx="602.7" cy="390" r="4" fill="#b2182b"/>
<text x="602.7" y="406" text-anchor="end" font-family="Helvetica,Arial" font-size="7.5" transform="rotate(-70 602.7 406)">GCA_053320195.1 Pe 2024</text>
<circle cx="628.2" cy="390" r="4" fill="#b2182b"/>
<text x="628.2" y="406" text-anchor="end" font-family="Helvetica,Arial" font-size="7.5" transform="rotate(-70 628.2 406)">GCA_053320295.1 Pe 2024</text>
<circle cx="653.6" cy="390" r="4" fill="#b2182b"/>
<text x="653.6" y="406" text-anchor="end" font-family="Helvetica,Arial" font-size="7.5" transform="rotate(-70 653.6 406)">GCA_053320355.1 Pe 2023</text>
<circle cx="679.1" cy="390" r="4" fill="#b2182b"/>
<text x="679.1" y="406" text-anchor="end" font-family="Helvetica,Arial" font-size="7.5" transform="rotate(-70 679.1 406)">GCA_053320375.1 Pe 2023</text>
<circle cx="704.5" cy="390" r="4" fill="#b2182b"/>
<text x="704.5" y="406" text-anchor="end" font-family="Helvetica,Arial" font-size="7.5" transform="rotate(-70 704.5 406)">GCA_053320395.1 Pe 2023</text>
<circle cx="730.0" cy="390" r="4" fill="#b2182b"/>
<text x="730.0" y="406" text-anchor="end" font-family="Helvetica,Arial" font-size="7.5" transform="rotate(-70 730.0 406)">GCA_053373775.1 Pe 2024</text>
<line x1="158" y1="320.5" x2="740" y2="320.5" stroke="#bbb" stroke-dasharray="4,3" stroke-width="1"/>
<text x="744" y="323.5" font-family="Helvetica,Arial" font-size="8.5" fill="#666">8 alelos (rango de brote)</text>
<line x1="158" y1="207.6" x2="740" y2="207.6" stroke="#bbb" stroke-dasharray="4,3" stroke-width="1"/>
<text x="744" y="210.6" font-family="Helvetica,Arial" font-size="8.5" fill="#666">21 (máx. intragrupo)</text>
<line x1="158" y1="129.5" x2="740" y2="129.5" stroke="#bbb" stroke-dasharray="4,3" stroke-width="1"/>
<text x="744" y="132.5" font-family="Helvetica,Arial" font-size="8.5" fill="#666">30 (mín. intergrupo)</text>
<line x1="158" y1="60" x2="158" y2="390" stroke="#333"/>
<line x1="153" y1="390.0" x2="158" y2="390.0" stroke="#333"/>
<text x="149" y="393.0" text-anchor="end" font-family="Helvetica,Arial" font-size="9">0</text>
<line x1="153" y1="303.2" x2="158" y2="303.2" stroke="#333"/>
<text x="149" y="306.2" text-anchor="end" font-family="Helvetica,Arial" font-size="9">10</text>
<line x1="153" y1="216.3" x2="158" y2="216.3" stroke="#333"/>
<text x="149" y="219.3" text-anchor="end" font-family="Helvetica,Arial" font-size="9">20</text>
<line x1="153" y1="129.5" x2="158" y2="129.5" stroke="#333"/>
<text x="149" y="132.5" text-anchor="end" font-family="Helvetica,Arial" font-size="9">30</text>
<text x="118" y="225.0" text-anchor="middle" font-family="Helvetica,Arial" font-size="10" transform="rotate(-90 118 225.0)">Diferencias alélicas</text>
<circle cx="170" cy="46" r="4" fill="#2166ac"/>
<text x="179" y="50" font-family="Helvetica,Arial" font-size="9.5">Tipo capsular KL2</text>
<circle cx="295" cy="46" r="4" fill="#b2182b"/>
<text x="304" y="50" font-family="Helvetica,Arial" font-size="9.5">Tipo capsular KL9</text>
<text x="20" y="480" font-family="Helvetica,Arial" font-size="14" font-weight="700">B</text>
<text x="40" y="480" font-family="Helvetica,Arial" font-size="12">Distancias por pares (mediana y rango)</text>
<text x="270" y="524" text-anchor="end" font-family="Helvetica,Arial" font-size="10">KL2 entre si</text>
<line x1="280.0" y1="520" x2="311.2" y2="520" stroke="#2166ac" stroke-width="3"/>
<circle cx="291.9" cy="520" r="4.5" fill="white" stroke="#2166ac" stroke-width="2"/>
<text x="810" y="524" font-family="Helvetica,Arial" font-size="9" fill="#555">0-21, mediana 8</text>
<text x="270" y="548" text-anchor="end" font-family="Helvetica,Arial" font-size="10">KL9 entre si</text>
<line x1="280.0" y1="544" x2="311.2" y2="544" stroke="#b2182b" stroke-width="3"/>
<circle cx="296.3" cy="544" r="4.5" fill="white" stroke="#b2182b" stroke-width="2"/>
<text x="810" y="548" font-family="Helvetica,Arial" font-size="9" fill="#555">0-21, mediana 11</text>
<text x="270" y="572" text-anchor="end" font-family="Helvetica,Arial" font-size="10">KL2 frente a KL9</text>
<line x1="324.6" y1="568" x2="352.8" y2="568" stroke="#7b3294" stroke-width="3"/>
<circle cx="336.5" cy="568" r="4.5" fill="white" stroke="#7b3294" stroke-width="2"/>
<text x="810" y="572" font-family="Helvetica,Arial" font-size="9" fill="#555">30-49, mediana 38</text>
<text x="270" y="596" text-anchor="end" font-family="Helvetica,Arial" font-size="10">Andinos frente a ST2 no andinos</text>
<line x1="394.4" y1="592" x2="800.0" y2="592" stroke="#666" stroke-width="3"/>
<circle cx="544.5" cy="592" r="4.5" fill="white" stroke="#666" stroke-width="2"/>
<text x="810" y="596" font-family="Helvetica,Arial" font-size="9" fill="#555">77-350, mediana 178</text>
</svg>